<svg width="120" height="67" viewBox="0 0 120 67" fill="none" xmlns="http://www.w3.org/2000/svg">
<g clip-path="url(#clip0_1_4)">
<rect width="120" height="67" rx="9" fill="#212025"/>
<path d="M13.837 58V20.24C13.837 18.704 14.1997 17.3173 14.925 16.08C15.693 14.8 16.6957 13.7973 17.933 13.072C19.213 12.304 20.621 11.92 22.157 11.92H51.533C53.069 11.92 54.477 12.304 55.757 13.072C57.037 13.7973 58.0397 14.8 58.765 16.08C59.533 17.3173 59.917 18.704 59.917 20.24V58H52.941V41.872H20.749V58H13.837ZM20.749 34.96H52.941V20.432C52.941 20.0053 52.7917 19.6427 52.493 19.344C52.1943 19.0027 51.8317 18.832 51.405 18.832H22.349C21.9223 18.832 21.5383 19.0027 21.197 19.344C20.8983 19.6427 20.749 20.0053 20.749 20.432V34.96ZM67.337 58V11.92H109.577V18.832H74.313V31.504H102.665V38.416H74.313V58H67.337Z" fill="#BC1C1C"/>
</g>
<defs>
<clipPath id="clip0_1_4">
<rect width="120" height="67" fill="white"/>
</clipPath>
</defs>
</svg>
